<svg version="1.1" id="Layer_1" xmlns="http://www.w3.org/2000/svg" xmlns:xlink="http://www.w3.org/1999/xlink" x="0px" y="0px" viewBox="0 0 500 500" style="width: 188px;" xml:space="preserve" data-imageid="easter-bunny-24" imageName="Easter Bunny" class="illustrations_image">
<style type="text/css">
	.st0_easter-bunny-24{fill:#D1D3D4;}
	.st1_easter-bunny-24{fill:#FFFFFF;}
	.st2_easter-bunny-24{fill:#231F20;}
	.st3_easter-bunny-24{fill:#68E1FD;}
</style>
<ellipse id="Shadow_easter-bunny-24" class="st0_easter-bunny-24" cx="232.2" cy="389" rx="150.5" ry="18.7"/>
<g id="Bunny_easter-bunny-24">
	<path class="st1_easter-bunny-24" d="M348.6,383.5c0,0,8.9,6.3,15.6,1.5s0.3-11.2-3.7-16.6S331,358.1,331,358.1l-8.4,6.8L348.6,383.5z"/>
	<path class="st2_easter-bunny-24" d="M358.4,387.5c-5.2,0-9.9-3.2-10.2-3.4l0,0l-26-18.6c-0.3-0.2-0.4-0.7-0.1-1c0,0,0.1-0.1,0.1-0.1l8.4-6.8&#10;&#9;&#9;c0.2-0.1,0.4-0.2,0.6-0.1c1,0.2,25.9,5.1,29.9,10.7c0.5,0.7,1,1.4,1.5,2c2.8,3.6,5.6,7.3,5.1,10.9c-0.4,1.9-1.5,3.6-3.1,4.6&#10;&#9;&#9;C362.8,386.9,360.6,387.6,358.4,387.5z M349,383c0.2,0.1,8.6,5.9,14.8,1.5c1.3-0.8,2.3-2.2,2.5-3.7c0.4-3-2.2-6.5-4.8-9.8&#10;&#9;&#9;c-0.5-0.7-1.1-1.4-1.6-2.1c-3.1-4.2-21.5-8.6-28.8-10l-7.4,6.1L349,383z"/>
	<path class="st1_easter-bunny-24" d="M361.3,386c-2.3-5-6.2-9.2-11-12"/>
	<path class="st2_easter-bunny-24" d="M361.3,386.6c-0.3,0-0.5-0.2-0.6-0.4c-2.3-4.9-6-8.9-10.6-11.6c-0.3-0.2-0.5-0.6-0.3-0.9c0,0,0,0,0,0&#10;&#9;&#9;c0.2-0.3,0.6-0.5,0.9-0.3c0,0,0,0,0,0c5,2.8,8.9,7.1,11.3,12.3c0.1,0.4,0,0.8-0.4,0.9c0,0,0,0,0,0&#10;&#9;&#9;C361.5,386.6,361.4,386.7,361.3,386.6z"/>
	<path class="st1_easter-bunny-24" d="M366.1,382.6c-0.1,0.3-3.6-7.6-11-11.4"/>
	<path class="st2_easter-bunny-24" d="M366,383.3c-0.4,0-0.6-0.3-1-1c-1.1-1.9-4.5-7.5-10.3-10.5c-0.3-0.2-0.4-0.6-0.2-1c0.2-0.3,0.5-0.4,0.9-0.3&#10;&#9;&#9;c6.2,3.1,9.7,9,10.8,11l0.3,0.5c0.3,0.2,0.4,0.6,0.2,0.9c-0.1,0.2-0.3,0.4-0.6,0.4L366,383.3z"/>
	<path class="st2_easter-bunny-24" d="M418.3,254.6c-0.3,0-0.6-0.2-0.7-0.4c-0.1-0.4,0-0.8,0.4-0.9c0.6-0.2,14-5.2,21.4-3.6c0.4,0.1,0.6,0.5,0.5,0.8&#10;&#9;&#9;c-0.1,0.4-0.5,0.6-0.8,0.5l0,0c-7-1.5-20.5,3.5-20.6,3.6C418.5,254.6,418.4,254.7,418.3,254.6z"/>
	<path class="st2_easter-bunny-24" d="M437.8,263.2c-0.1,0-0.1,0-0.2,0c-8.9-2.4-22.9-1.4-23-1.4c-0.4,0-0.7-0.3-0.7-0.6c0-0.4,0.3-0.7,0.6-0.8&#10;&#9;&#9;c0.6,0,14.3-1,23.5,1.5c0.4,0.1,0.6,0.5,0.5,0.8c0,0,0,0,0,0C438.4,263,438.1,263.2,437.8,263.2z"/>
	<path class="st2_easter-bunny-24" d="M429.5,273.3c-0.1,0-0.3,0-0.4-0.1c-9.5-6.8-17.2-4.7-17.3-4.7c-0.4,0.1-0.8,0-0.9-0.4c-0.1-0.4,0-0.8,0.4-0.9&#10;&#9;&#9;c0,0,0.1,0,0.1,0c0.3-0.1,8.3-2.3,18.5,4.9c0.3,0.2,0.4,0.7,0.1,1C429.9,273.2,429.7,273.3,429.5,273.3L429.5,273.3z"/>
	<path class="st1_easter-bunny-24" d="M294.7,364.6c0,0-1.4,14.7,4.7,19.1s30.5,13.3,39,14.7s17.9-4.3,15.4-10.5c-3.6-8.8-27.1-24.9-27.1-24.9&#10;&#9;&#9;L294.7,364.6z"/>
	<path class="st2_easter-bunny-24" d="M341.1,399.3c-0.9,0-1.8-0.1-2.8-0.2c-8.6-1.4-33.2-10.3-39.4-14.8c-6.3-4.6-5-19.1-5-19.7&#10;&#9;&#9;c0-0.3,0.3-0.6,0.7-0.6l32-1.7c0.2,0,0.3,0,0.4,0.1c1,0.7,23.8,16.3,27.4,25.2c0.9,2.2,0.4,4.8-1.2,6.6&#10;&#9;&#9;C350.8,397.3,346,399.3,341.1,399.3z M295.4,365.3c-0.2,2.8-0.6,14.2,4.5,17.9c6,4.4,30.2,13.2,38.8,14.5c5.1,0.8,11-1,13.7-4.4&#10;&#9;&#9;c1.3-1.4,1.6-3.4,1-5.2c-3.3-8.1-24.4-22.9-26.7-24.5L295.4,365.3z"/>
	<path class="st1_easter-bunny-24" d="M338.5,398.4c0,0-3.3-11.9-10.9-15.8"/>
	<path class="st2_easter-bunny-24" d="M338.5,399.1c-0.3,0-0.6-0.2-0.7-0.5c0-0.1-3.3-11.7-10.6-15.4c-0.3-0.2-0.4-0.6-0.2-1&#10;&#9;&#9;c0.2-0.3,0.5-0.4,0.8-0.3c7.8,4,11.2,15.7,11.3,16.2c0.1,0.4-0.1,0.8-0.5,0.9C338.6,399.1,338.5,399.1,338.5,399.1z"/>
	<path class="st1_easter-bunny-24" d="M346.4,397c0,0-4-9.5-10.2-14.4"/>
	<path class="st2_easter-bunny-24" d="M346.4,397.6c-0.3,0-0.5-0.2-0.6-0.4c0-0.1-4-9.4-10-14.1c-0.3-0.2-0.4-0.7-0.1-1c0,0,0,0,0,0&#10;&#9;&#9;c0.2-0.3,0.7-0.4,1-0.1c0,0,0,0,0,0c6.3,4.9,10.2,14.3,10.4,14.6c0.2,0.4,0,0.8-0.4,0.9c0,0,0,0,0,0&#10;&#9;&#9;C346.6,397.6,346.5,397.6,346.4,397.6z"/>
	<path class="st1_easter-bunny-24" d="M351.8,394.1c0,0-2.9-8.8-9.4-13.3"/>
	<path class="st2_easter-bunny-24" d="M351.8,394.8c-0.3,0-0.6-0.2-0.7-0.5c0-0.1-2.9-8.7-9.2-13c-0.3-0.2-0.4-0.6-0.2-1c0,0,0,0,0,0&#10;&#9;&#9;c0.2-0.3,0.7-0.4,1-0.2c0,0,0,0,0,0c6.7,4.6,9.6,13.3,9.7,13.7c0.1,0.4-0.1,0.8-0.5,0.9C352,394.7,351.9,394.7,351.8,394.8z"/>
	<path class="st3_easter-bunny-24 targetColor" d="M87,326.6c-1.1-0.5-10.5,0.3-16.3-7.8c0,0-11.9,24.4-2.8,35.5l-7.2-2.2c0,0,11.9,19.7,32.1,27.4&#10;&#9;&#9;s39.6-4.2,39.6-4.2L87,326.6z" style="fill: rgb(104, 225, 253);"/>
	<path class="st2_easter-bunny-24" d="M107.2,382.8c-5,0-10-0.9-14.6-2.6c-20.2-7.8-32.3-27.5-32.5-27.7c-0.2-0.2-0.2-0.6,0-0.8&#10;&#9;&#9;c0.2-0.2,0.5-0.3,0.8-0.2l5.3,1.6c-7-11.8,3.4-33.5,3.9-34.5c0.1-0.2,0.3-0.4,0.6-0.4c0.2,0,0.5,0.1,0.6,0.3&#10;&#9;&#9;c4.5,6.2,11.1,6.9,14.3,7.2c0.6,0,1.2,0.1,1.8,0.3c0.1,0,0.1,0.1,0.2,0.1l45.5,48.7c0.1,0.2,0.2,0.4,0.2,0.6c0,0.2-0.2,0.4-0.3,0.5&#10;&#9;&#9;C125,380.3,116.2,382.7,107.2,382.8z M62.4,353.4c3.3,4.8,14.3,19.2,30.7,25.5c17.5,6.7,34.5-1.6,38.2-3.7l-44.7-48&#10;&#9;&#9;c-0.2,0-0.7-0.1-1.2-0.1c-3-0.3-9.8-1-14.6-6.9c-2.1,4.7-10.1,24.3-2.4,33.7c0.2,0.3,0.2,0.7-0.1,1c-0.2,0.1-0.4,0.2-0.6,0.1&#10;&#9;&#9;L62.4,353.4z"/>
	<path class="st1_easter-bunny-24" d="M421.8,257.7c-0.1,11.6-1.7,28.2-15.5,31.8c-11.9,3.2-17.5,1.8-19.8,0.8c1.4,1.3,1.9,4.1-12.4,8.1&#10;&#9;&#9;c0,0,2.8,34.5-27.1,55.6s-62.1,20.3-72.6,21.1c0,0,17.2,7.5,11.6,18.6c0,0,2.1,6.5-3,8c-3.1,0.9-6.4,0.4-9.1-1.3c0,0,0.4,2.5-5,2.9&#10;&#9;&#9;s-19.1-5.6-19.1-5.6l-8-0.1l-37.5-0.7c0,0-31.1,4.1-40.9,0.4s-11.6-8.5-11.6-8.5s-12.5,1-22.8-5.6s-43.6-35.7-49.8-67.3&#10;&#9;&#9;s29.9-80.6,53.2-102.2s40.5-25.6,65-27.8c6.7-0.6,19.2,2.9,29.1,6.1c6.1,2,11.1,3.9,13.3,4.7l0,0l1,0.4l-0.7-0.7&#10;&#9;&#9;c-0.4-0.5-0.9-1-1.3-1.4c-4-4.5-8.1-9.7-12.2-15.3c-5.4-7.5-10.5-15.2-15.1-23.1c-7.9-13.5-13-25.4-11.7-29.2&#10;&#9;&#9;c2.8-7.8,31,2.2,52.6,12.7c-0.3-0.8-8.9-25.6-10-34.9s2-13.3,7.7-10.5s41.1,17.7,50.5,28.8s22.2,48.2,26,50.4s11.1,5.5,11.1,5.5&#10;&#9;&#9;s24.9,0.6,41,11.6s43.2,49.9,43.2,60.4C421.8,253.1,421.9,255.3,421.8,257.7z"/>
	<path class="st2_easter-bunny-24" d="M246.8,93.7c1.1,0,2.2,0.3,3.2,0.9c5.6,2.8,41.1,17.7,50.5,28.8s22.2,48.2,26,50.4s11.1,5.5,11.1,5.5&#10;&#9;&#9;s24.9,0.6,41,11.6s43.2,49.9,43.2,60.4c0,1.8,0,4,0,6.4c-0.1,11.6-1.7,28.2-15.5,31.8c-4.2,1.2-8.5,1.9-12.9,2&#10;&#9;&#9;c-2.4,0.1-4.7-0.3-6.9-1.2c1.4,1.3,1.9,4.1-12.4,8.1c0,0,2.8,34.5-27.1,55.6s-62.1,20.3-72.6,21.1c0,0,17.2,7.5,11.6,18.6&#10;&#9;&#9;c0,0,2.1,6.5-3,8c-1,0.3-2.1,0.4-3.1,0.4c-2.1,0-4.2-0.6-6-1.7c0,0,0.4,2.5-5,2.9h-0.6c-5.7,0-18.5-5.6-18.5-5.6l-8-0.1l-37.5-0.7&#10;&#9;&#9;c-9,1.2-18.1,1.8-27.2,2c-5.6,0-10.7-0.4-13.7-1.6c-9.8-3.7-11.6-8.5-11.6-8.5s-0.7,0.1-1.9,0.1c-3.9,0-13-0.6-20.9-5.7&#10;&#9;&#9;c-10.4-6.6-43.6-35.7-49.8-67.3s29.9-80.6,53.2-102.2s40.5-25.6,65-27.8c0.5-0.1,1.1-0.1,1.6-0.1c7,0,18.3,3.2,27.5,6.1&#10;&#9;&#9;c6.1,2,11.1,3.9,13.3,4.7l0,0l1,0.4l-0.7-0.7c-0.4-0.5-0.9-1-1.3-1.4c-4-4.5-8.1-9.7-12.2-15.3c-5.4-7.5-10.5-15.2-15.1-23.1&#10;&#9;&#9;c-7.9-13.5-13-25.4-11.7-29.2c0.7-1.9,2.9-2.8,6.3-2.8c10.1,0,30.1,7.6,46.3,15.5c-0.3-0.8-8.9-25.6-10-34.9&#10;&#9;&#9;C241.5,97.7,243.2,93.8,246.8,93.7 M246.8,92.4L246.8,92.4c-1.5,0-2.9,0.6-3.9,1.7c-1.9,2.1-2.5,5.9-1.9,11.2&#10;&#9;&#9;c0.9,7.4,6.2,23.9,9,32c-14.6-6.8-33.7-14.2-43.9-14.2c-4.2,0-6.7,1.2-7.6,3.7c-2,5.5,6.5,21.4,11.8,30.4c4.7,8,9.7,15.8,15.2,23.3&#10;&#9;&#9;c3.6,4.9,7.1,9.4,10.5,13.3c-2.5-0.9-5.6-2-9.1-3.1c-12.7-4.1-22.1-6.2-27.9-6.2c-0.6,0-1.2,0-1.8,0.1&#10;&#9;&#9;c-26.6,2.4-43.2,7.2-65.8,28.1c-10.4,9.7-25.9,27.3-37.9,47.7c-9.1,15.4-19.3,37.7-15.7,55.8c6.2,31.3,39.2,61,50.5,68.2&#10;&#9;&#9;c8.3,5.3,17.9,5.9,21.7,5.9h1.1c1.1,1.7,4.2,5.4,11.9,8.4c2.9,1.1,7.6,1.6,14.2,1.6c9.1-0.2,18.2-0.8,27.3-2l37.4,0.7l7.7,0.1&#10;&#9;&#9;c1.9,0.8,13.3,5.6,18.8,5.6c0.2,0,0.5,0,0.7,0c2.7-0.2,4.6-1,5.6-2.2l0.1-0.1c1.7,0.7,3.5,1.1,5.3,1.1c1.2,0,2.3-0.2,3.5-0.5&#10;&#9;&#9;c1.6-0.4,2.9-1.4,3.7-2.9c0.9-2,1-4.2,0.4-6.3c1.2-2.6,1.3-5.5,0.4-8.1c-1.5-4.2-5.4-7.4-8.6-9.4c13.9-0.7,41.9-2.4,68.5-21.1&#10;&#9;&#9;c27.1-19.1,27.9-49.4,27.7-55.7c10.4-3,12.4-5.3,12.9-7c1.6,0.3,3.3,0.5,4.9,0.5c4.5-0.1,8.9-0.8,13.2-2&#10;&#9;&#9;c14.5-3.9,16.4-20.8,16.5-33.2c0-1.6,0-3.2,0-4.6v-1.8c0-11.4-27.8-50.5-43.8-61.5C364,179.1,341,178,338,177.9&#10;&#9;&#9;c-1.3-0.6-7.3-3.4-10.7-5.4c-1.4-0.9-5.3-9.8-8.8-17.6c-5.4-12.2-11.5-26.1-16.9-32.4c-8.2-9.7-35.3-22-46.8-27.2&#10;&#9;&#9;c-1.9-0.8-3.3-1.5-4.1-1.9C249.5,92.7,248.2,92.4,246.8,92.4L246.8,92.4z"/>
	<path class="st3_easter-bunny-24 targetColor" d="M421.8,257.7c-1.9,4.5-4.3,8.7-7.2,12.7c-6,8.3-15.6,15.8-25.6,13.5c-5.9-1.3-10.9-5.9-16.9-6.1&#10;&#9;&#9;c-5.2-0.2-9.9,2.8-15,3.9c-8.3,1.8-16.8-1.8-23.8-6.5c-12.6-8.6-22.1-20.9-27.2-35.3c-1.4-3.9-2.4-7.9-4.8-11.3&#10;&#9;&#9;c-6.7-9.5-20.3-9.8-31.5-12.7c-11.8-3.1-22.4-9.8-30.1-19.3l0,0c-0.6-0.7-1.1-1.4-1.7-2.2l0.4,0.2l0.3,0.2&#10;&#9;&#9;c-4-4.5-8.1-9.7-12.2-15.3c-5.4-7.5-10.5-15.2-15.1-23.1c-7.9-13.5-13-25.4-11.7-29.2c2.8-7.8,31,2.2,52.6,12.7&#10;&#9;&#9;c-0.3-0.8-8.9-25.6-10-34.9s2-13.3,7.7-10.5s41.1,17.7,50.5,28.8s22.2,48.2,26,50.4s11.1,5.5,11.1,5.5s24.9,0.6,41,11.6&#10;&#9;&#9;s43.2,49.8,43.2,60.4C421.8,253.1,421.9,255.3,421.8,257.7z" style="fill: rgb(104, 225, 253);"/>
	<path class="st3_easter-bunny-24 targetColor" d="M256.8,369.3c-5.3,6.8-10.6,13.9-13.4,22c-0.7,2-1.2,4.1-1.5,6.2l-37.5-0.7c0,0-31.1,4.1-40.9,0.4&#10;&#9;&#9;s-11.6-8.5-11.6-8.5s-12.5,1-22.8-5.6s-43.6-35.7-49.8-67.3s29.9-80.6,53.2-102.2s40.5-25.6,65-27.8c9.1-0.8,20.9,2.6,29.1,6.2&#10;&#9;&#9;c-2,18.4-7.7,36.9-10.4,55.3c-1.8,12.5-2.8,26.8,5.5,36.2c4.4,4.9,10.7,7.8,15.1,12.6C254.8,316.3,242.7,347.5,256.8,369.3z" style="fill: rgb(104, 225, 253);"/>
	<path class="st2_easter-bunny-24" d="M297.2,210.3c-14.9,1.2-29.7-3.1-41.7-12.1c-19.7-14.9-46.7-64.8-46.7-64.8s34.5,6.6,51.9,19.9&#10;&#9;&#9;S297.2,210.3,297.2,210.3z"/>
	<path class="st2_easter-bunny-24" d="M327.5,195.2c-0.2,0-0.4-0.1-0.5-0.2c-5.8-6.5-13.3-11.1-21.7-13.5c-11.8-3.4-17.8-10.7-23.6-17.7&#10;&#9;&#9;c-1.5-1.8-3-3.6-4.5-5.3c-7.7-8.6-26.5-19.5-26.7-19.6c-0.3-0.2-0.5-0.6-0.3-0.9c0,0,0,0,0-0.1c0.2-0.3,0.6-0.5,0.9-0.3&#10;&#9;&#9;c0,0,0,0,0.1,0c0.8,0.4,19.2,11.2,27.1,19.9c1.6,1.8,3.1,3.6,4.6,5.4c5.9,7.2,11.5,14,22.9,17.2c14.6,4.2,22.1,13.6,22.4,13.9&#10;&#9;&#9;c0.2,0.3,0.2,0.7-0.1,1C327.9,195.2,327.7,195.2,327.5,195.2L327.5,195.2z"/>
	<path class="st1_easter-bunny-24" d="M374.2,298.4c0,0-11.8,6.2-27.1-5.8"/>
	<path class="st2_easter-bunny-24" d="M366.1,300.7c-5,0-11.8-1.5-19.5-7.6c-0.3-0.2-0.4-0.7-0.1-1c0.2-0.3,0.7-0.4,1-0.1l0,0&#10;&#9;&#9;c14.8,11.6,26.3,5.8,26.4,5.7c0.3-0.2,0.8,0,1,0.3c0.2,0.3,0.1,0.8-0.3,0.9c0,0,0,0,0,0C371.9,300.2,369,300.8,366.1,300.7z"/>
	<path class="st2_easter-bunny-24" d="M310.5,236.8c-0.1,0-0.2,0-0.3,0c-5.8-2.3-10.6-6.6-13.5-12.1c-1.3-0.5-8.2-2.9-24.6-6.5&#10;&#9;&#9;c-18.7-4.2-35.1-22.9-35.3-23.1c-0.3-0.3-0.2-0.7,0.1-1c0,0,0,0,0,0c0.3-0.3,0.7-0.2,1,0c0,0,0,0,0,0c0.2,0.2,16.4,18.6,34.6,22.6&#10;&#9;&#9;c18.5,4.1,24.8,6.6,25,6.7c0.2,0.1,0.3,0.2,0.4,0.4c2.8,5.3,7.4,9.4,12.9,11.7c0.4,0.1,0.5,0.6,0.4,0.9&#10;&#9;&#9;C311,236.6,310.8,236.8,310.5,236.8L310.5,236.8z"/>
	<path class="st0_easter-bunny-24" d="M308.9,244.3h-0.1c-5-0.6-9.5-3.5-12.1-7.8c-0.2-0.3-0.1-0.7,0.3-0.9c0,0,0,0,0,0c0.3-0.2,0.8-0.1,0.9,0.3&#10;&#9;&#9;c0,0,0,0,0,0c2.5,3.9,6.6,6.5,11.2,7.1c0.4,0.1,0.6,0.4,0.6,0.8C309.5,244,309.2,244.3,308.9,244.3L308.9,244.3z"/>
	<path class="st0_easter-bunny-24" d="M310.5,260h-0.1c-6.2-1.4-10.2-3.7-11.8-6.8c-0.8-1.5-0.9-3.4-0.3-5c0.2-0.3,0.6-0.5,0.9-0.4c0,0,0,0,0,0&#10;&#9;&#9;c0.4,0.2,0.5,0.6,0.4,0.9l0,0c-0.4,1.3-0.3,2.7,0.3,3.9c1,1.9,3.6,4.4,10.8,6c0.4,0.1,0.6,0.5,0.5,0.8&#10;&#9;&#9;C311.1,259.8,310.8,260.1,310.5,260L310.5,260z"/>
	<path class="st0_easter-bunny-24" d="M327,278.3c-12,0-22.6-13.4-23-14c-0.2-0.3-0.2-0.7,0.1-1c0,0,0,0,0,0c0.3-0.2,0.7-0.2,1,0.1c0,0,0,0,0,0&#10;&#9;&#9;c0.1,0.1,10.9,13.8,22.4,13.4c0.4,0,0.7,0.3,0.7,0.7c0,0.4-0.3,0.7-0.7,0.7c0,0,0,0,0,0L327,278.3z"/>
	<path class="st0_easter-bunny-24" d="M332.1,288.5c-2.6-0.1-5-1.2-6.6-3.2c-0.3-0.3-0.6-0.5-0.9-0.8c-0.4,0-0.7-0.3-0.7-0.7c0,0,0,0,0,0&#10;&#9;&#9;c0-0.4,0.3-0.7,0.7-0.7c0.6,0,1.1,0.5,1.8,1.2c1.6,1.5,4,3.9,8.8,2.2c0.4-0.1,0.8,0.1,0.9,0.4c0.1,0.4-0.1,0.8-0.4,0.9c0,0,0,0,0,0&#10;&#9;&#9;C334.5,288.3,333.3,288.5,332.1,288.5z"/>
	<path class="st2_easter-bunny-24" d="M275.8,375.7c-0.4,0-0.7-0.3-0.7-0.6c0-0.2-0.7-4.9-10.6-5.4c-10.7-0.5-24-1.4-24.1-1.4&#10;&#9;&#9;c-0.4,0-0.7-0.3-0.7-0.7c0,0,0,0,0,0c0-0.4,0.3-0.7,0.7-0.7c0,0,0,0,0.1,0c0.1,0,13.4,0.8,24.1,1.4c11.3,0.6,11.9,6.4,11.9,6.6&#10;&#9;&#9;C276.5,375.3,276.3,375.7,275.8,375.7L275.8,375.7z"/>
	<path class="st2_easter-bunny-24" d="M225.4,379.7h-0.6c-0.4,0-0.7-0.3-0.8-0.7c0-0.4,0.2-0.7,0.6-0.7c0,0,0,0,0,0h0.2&#10;&#9;&#9;c13.5,0.7,16.9-15.7,17.7-20.7c3.2-22.1-5.5-40.2-22.2-46c-0.4-0.1-0.6-0.5-0.4-0.9c0,0,0,0,0,0c0.1-0.4,0.5-0.6,0.9-0.4&#10;&#9;&#9;c17.4,6.1,26.5,24.8,23.2,47.6C241,377.7,229.8,379.7,225.4,379.7z"/>
	<path class="st2_easter-bunny-24" d="M225.5,304.6c-0.1,0-0.3,0-0.4-0.1c-4.8-3.6-12.6-3.1-16.4-3c-0.7,0.1-1.4,0.1-2.2,0c-0.4-0.1-0.6-0.4-0.5-0.8&#10;&#9;&#9;c0.1-0.4,0.4-0.6,0.8-0.5c0.6,0,1.2,0,1.8,0c3.9-0.2,12-0.7,17.3,3.2c0.3,0.2,0.4,0.6,0.2,1c0,0,0,0,0,0&#10;&#9;&#9;C225.9,304.6,225.7,304.7,225.5,304.6z"/>
	<path class="st1_easter-bunny-24" d="M274.5,401.6c-1-5.7-4.3-10.8-9.1-13.9"/>
	<path class="st2_easter-bunny-24" d="M274.5,402.3c-0.4,0-0.7-0.3-0.7-0.6c-0.9-5.5-4.1-10.4-8.8-13.4c-0.3-0.2-0.4-0.6-0.2-1c0,0,0,0,0,0&#10;&#9;&#9;c0.2-0.3,0.6-0.4,0.9-0.2c0,0,0,0,0.1,0c5,3.3,8.5,8.5,9.5,14.4c0,0.4-0.2,0.7-0.6,0.8L274.5,402.3z"/>
	<path class="st1_easter-bunny-24" d="M287,394.2c0,0-5.5-7.7-12.5-10.5"/>
	<path class="st2_easter-bunny-24" d="M287,394.9c-0.2,0-0.4-0.1-0.6-0.3c-0.1-0.1-5.5-7.6-12.2-10.3c-0.4-0.1-0.5-0.6-0.4-0.9&#10;&#9;&#9;c0.1-0.4,0.6-0.5,0.9-0.4c7,2.8,12.6,10.4,12.8,10.8c0.2,0.3,0.2,0.7-0.1,1c0,0,0,0,0,0C287.3,394.9,287.1,394.9,287,394.9z"/>
	<path class="st2_easter-bunny-24" d="M321.7,179.5c-0.4,0-0.7-0.3-0.7-0.7c0-0.3,0.2-0.5,0.4-0.6c3.4-1.6,16.1-0.2,17.5-0.1c0.4,0,0.7,0.4,0.6,0.8&#10;&#9;&#9;c0,0.4-0.4,0.7-0.8,0.6c-3.8-0.4-14.2-1.2-16.8-0.1C321.9,179.5,321.8,179.5,321.7,179.5z"/>
	<path class="st2_easter-bunny-24" d="M400.9,253.4c-0.1,0-0.2,0-0.3-0.1c-10.9-4.1-22.6-5.6-34.1-4.1c-0.4,0.1-0.7-0.2-0.8-0.6&#10;&#9;&#9;c-0.1-0.4,0.2-0.7,0.6-0.8c0,0,0,0,0,0c11.8-1.4,23.7,0,34.8,4.3c0.3,0.2,0.5,0.6,0.3,0.9C401.4,253.2,401.1,253.4,400.9,253.4z"/>
	<path class="st2_easter-bunny-24" d="M396.3,261.7h-0.1c-0.2,0-22.7-4.7-35.4-1.7c-0.4,0.1-0.7-0.1-0.8-0.5c-0.1-0.4,0.1-0.7,0.5-0.8&#10;&#9;&#9;c13-3.1,35,1.5,36,1.6c0.4,0.1,0.6,0.5,0.5,0.8C396.9,261.5,396.6,261.7,396.3,261.7z"/>
	<path class="st2_easter-bunny-24" d="M362.8,273.3c-0.3,0-0.5-0.2-0.6-0.4c-0.2-0.3,0-0.8,0.3-0.9c0,0,0,0,0,0c9.4-4.4,33.6-2.7,34.7-2.7&#10;&#9;&#9;c0.4,0,0.7,0.4,0.7,0.7c0,0,0,0,0,0c0,0.4-0.4,0.7-0.7,0.6c-0.2,0-25-1.7-34,2.5C363,273.3,362.9,273.3,362.8,273.3z"/>
	<ellipse class="st2_easter-bunny-24" cx="379.9" cy="224.9" rx="3.7" ry="8.3"/>
	<path class="st2_easter-bunny-24" d="M417.5,247.5c-0.4-0.1-0.7-0.1-1.1,0c-0.7,0.4-1.1,1.1-1.2,1.9c-0.5,3.5,1.3,6.9,3,10.1&#10;&#9;&#9;c0.3,0.7,0.8,1.3,1.5,1.6c1.3,0.5,2.5-0.9,3-2.2C424.9,253.8,423.1,248.4,417.5,247.5z"/>
	<path class="st0_easter-bunny-24" d="M253,232.8c-0.4,0-0.7-0.3-0.7-0.7c0-0.3,0.2-0.6,0.5-0.6c6.2-2.1,12.9-2.4,19.2-0.8c0.4,0.1,0.6,0.5,0.5,0.9&#10;&#9;&#9;c-0.1,0.4-0.5,0.6-0.9,0.5c-6.1-1.5-12.5-1.3-18.4,0.7C253.2,232.7,253.1,232.8,253,232.8z"/>
	<path class="st0_easter-bunny-24" d="M243.6,245.4c-0.3,0-0.5-0.1-0.6-0.4c-0.2-0.3-0.1-0.8,0.3-0.9c0,0,0,0,0,0c4-2.1,8.5-3.5,13-4&#10;&#9;&#9;c0.4,0,0.7,0.2,0.8,0.6c0,0.4-0.2,0.7-0.6,0.8c0,0,0,0,0,0c-4.4,0.5-8.6,1.8-12.5,3.8C243.8,245.4,243.7,245.4,243.6,245.4z"/>
	<path class="st0_easter-bunny-24" d="M232.7,268.3c-0.2,0-0.3-0.1-0.5-0.2c-0.3-0.3-0.3-0.7-0.1-1c0,0,0,0,0,0c2.8-3.2,6.2-6,9.9-8.2&#10;&#9;&#9;c0.3-0.2,0.8-0.1,1,0.2c0.2,0.3,0.1,0.8-0.2,1c-3.6,2.1-6.8,4.8-9.5,7.9C233.1,268.2,232.9,268.3,232.7,268.3z"/>
	<path class="st0_easter-bunny-24" d="M352.4,323.9c-0.7,0-1.4,0-2.1-0.1c-0.4,0-0.7-0.4-0.6-0.8c0-0.4,0.4-0.7,0.8-0.6c4.6,0.6,9.2-0.9,12.7-4&#10;&#9;&#9;c0.3-0.3,0.7-0.3,1,0c0,0,0,0,0,0c0.3,0.3,0.3,0.7,0,1c0,0,0,0,0,0C360.9,322.2,356.8,323.9,352.4,323.9z"/>
	<path class="st0_easter-bunny-24" d="M345.5,338.7c-1.2,0-2.4-0.1-3.5-0.4c-0.4-0.1-0.6-0.5-0.5-0.9c0.1-0.4,0.5-0.6,0.8-0.5c0,0,0,0,0,0&#10;&#9;&#9;c4.5,1.1,9.3-0.2,12.8-3.4c0.3-0.3,0.7-0.3,1,0c0,0,0,0,0,0c0.3,0.3,0.3,0.7,0,1C353.2,337.2,349.4,338.7,345.5,338.7z"/>
	<path class="st0_easter-bunny-24" d="M337,350.2c-2.1,0-4.2-0.4-6.2-1.2c-0.4-0.1-0.5-0.6-0.4-0.9c0,0,0,0,0,0c0.1-0.4,0.5-0.5,0.9-0.4c0,0,0,0,0,0&#10;&#9;&#9;c3.2,1.3,6.8,1.5,10.1,0.4c0.4-0.1,0.8,0.1,0.9,0.5c0.1,0.4-0.1,0.8-0.5,0.9c0,0,0,0,0,0C340.3,350,338.6,350.2,337,350.2z"/>
</g>
</svg>